<svg width="21" height="21" viewBox="0 0 21 21" fill="none" xmlns="http://www.w3.org/2000/svg">
<g id="vuesax/linear/people">
<g id="vuesax/linear/people_2">
<g id="people">
<g id="Group">
<path id="Vector" d="M16.603 7.95451C16.5415 7.94426 16.4697 7.94426 16.4083 7.95451C14.9941 7.90327 13.8669 6.74529 13.8669 5.31063C13.8669 3.84522 15.0453 2.66675 16.5107 2.66675C17.9761 2.66675 19.1546 3.85547 19.1546 5.31063C19.1444 6.74529 18.0171 7.90327 16.603 7.95451Z" fill="#5459EA"/>
<path id="Vector_2" d="M15.5475 14.185C16.9514 14.4207 18.4988 14.1748 19.5851 13.4472C21.03 12.4839 21.03 10.9058 19.5851 9.94253C18.4886 9.21495 16.9207 8.969 15.5168 9.21495" fill="#5459EA"/>
</g>
<g id="Group_2">
<path id="Vector_3" d="M6.73438 7.95451C6.79586 7.94426 6.86759 7.94426 6.92908 7.95451C8.34325 7.90327 9.47048 6.74529 9.47048 5.31063C9.47048 3.84522 8.29201 2.66675 6.82661 2.66675C5.3612 2.66675 4.18272 3.85547 4.18272 5.31063C4.19297 6.74529 5.32021 7.90327 6.73438 7.95451Z" fill="#5459EA"/>
<path id="Vector_4" d="M7.78994 14.185C6.38602 14.4207 4.83863 14.1748 3.75238 13.4472C2.30747 12.4839 2.30747 10.9058 3.75238 9.94253C4.84888 9.21495 6.41676 8.969 7.82068 9.21495" fill="#5459EA"/>
</g>
<g id="Group_3">
<path id="Vector_5" d="M11.6841 14.3798C11.6227 14.3696 11.5509 14.3696 11.4894 14.3798C10.0753 14.3286 8.94804 13.1706 8.94804 11.7359C8.94804 10.2705 10.1265 9.09204 11.5919 9.09204C13.0573 9.09204 14.2358 10.2808 14.2358 11.7359C14.2256 13.1706 13.0983 14.3388 11.6841 14.3798Z" fill="#5459EA"/>
<path id="Vector_6" d="M8.70203 16.3782C7.25712 17.3414 7.25712 18.9196 8.70203 19.8828C10.3416 20.9793 13.0265 20.9793 14.6661 19.8828C16.111 18.9196 16.111 17.3414 14.6661 16.3782C13.0368 15.2919 10.3416 15.2919 8.70203 16.3782Z" fill="#5459EA"/>
</g>
</g>
</g>
</g>
</svg>
