<svg width="21" height="25" viewBox="0 0 21 25" fill="none" xmlns="http://www.w3.org/2000/svg">
<g id="bx:bxs-dashboard">
<path id="Vector" d="M3.5 13.5417H8.75C8.98206 13.5417 9.20462 13.4319 9.36872 13.2366C9.53281 13.0412 9.625 12.7763 9.625 12.5V4.16667C9.625 3.8904 9.53281 3.62545 9.36872 3.4301C9.20462 3.23475 8.98206 3.125 8.75 3.125H3.5C3.26794 3.125 3.04538 3.23475 2.88128 3.4301C2.71719 3.62545 2.625 3.8904 2.625 4.16667V12.5C2.625 12.7763 2.71719 13.0412 2.88128 13.2366C3.04538 13.4319 3.26794 13.5417 3.5 13.5417ZM2.625 20.8333C2.625 21.1096 2.71719 21.3746 2.88128 21.5699C3.04538 21.7653 3.26794 21.875 3.5 21.875H8.75C8.98206 21.875 9.20462 21.7653 9.36872 21.5699C9.53281 21.3746 9.625 21.1096 9.625 20.8333V16.6667C9.625 16.3904 9.53281 16.1254 9.36872 15.9301C9.20462 15.7347 8.98206 15.625 8.75 15.625H3.5C3.26794 15.625 3.04538 15.7347 2.88128 15.9301C2.71719 16.1254 2.625 16.3904 2.625 16.6667V20.8333ZM11.375 20.8333C11.375 21.1096 11.4672 21.3746 11.6313 21.5699C11.7954 21.7653 12.0179 21.875 12.25 21.875H17.5C17.7321 21.875 17.9546 21.7653 18.1187 21.5699C18.2828 21.3746 18.375 21.1096 18.375 20.8333V13.5417C18.375 13.2654 18.2828 13.0004 18.1187 12.8051C17.9546 12.6097 17.7321 12.5 17.5 12.5H12.25C12.0179 12.5 11.7954 12.6097 11.6313 12.8051C11.4672 13.0004 11.375 13.2654 11.375 13.5417V20.8333ZM12.25 10.4167H17.5C17.7321 10.4167 17.9546 10.3069 18.1187 10.1116C18.2828 9.91622 18.375 9.65127 18.375 9.375V4.16667C18.375 3.8904 18.2828 3.62545 18.1187 3.4301C17.9546 3.23475 17.7321 3.125 17.5 3.125H12.25C12.0179 3.125 11.7954 3.23475 11.6313 3.4301C11.4672 3.62545 11.375 3.8904 11.375 4.16667V9.375C11.375 9.65127 11.4672 9.91622 11.6313 10.1116C11.7954 10.3069 12.0179 10.4167 12.25 10.4167Z" fill="#5459ea"/>
</g>
</svg>
