<svg width="25" height="22" viewBox="0 0 25 22" fill="none" xmlns="http://www.w3.org/2000/svg">
<g id="vuesax/linear/profile-2user">
<g id="vuesax/linear/profile-2user_2">
<g id="profile-2user">
<path id="Vector" d="M12.6333 11.0584C12.55 11.0501 12.45 11.0501 12.3583 11.0584C10.375 10.9917 8.8 9.36675 8.8 7.36675C8.8 5.32508 10.45 3.66675 12.5 3.66675C14.5417 3.66675 16.2 5.32508 16.2 7.36675C16.1917 9.36675 14.6167 10.9917 12.6333 11.0584Z" fill="white"/>
<path id="Vector_2" d="M8.46668 14.1335C6.45001 15.4835 6.45001 17.6835 8.46668 19.0252C10.7583 20.5585 14.5167 20.5585 16.8083 19.0252C18.825 17.6752 18.825 15.4752 16.8083 14.1335C14.525 12.6085 10.7667 12.6085 8.46668 14.1335Z" fill="white"/>
<path id="Vector_3" opacity="0.4" d="M18.6333 8.05841C18.55 8.05008 18.45 8.05008 18.3583 8.05841C16.375 7.99175 14.8 6.36675 14.8 4.36675C14.8 2.32508 16.45 0.666748 18.5 0.666748C20.5417 0.666748 22.2 2.32508 22.2 4.36675C22.1917 6.36675 20.6167 7.99175 18.6333 8.05841Z" fill="white"/>
<path id="Vector_4" opacity="0.4" d="M14.4667 11.1335C12.45 12.4835 12.45 14.6835 14.4667 16.0252C16.7583 17.5585 20.5167 17.5585 22.8083 16.0252C24.825 14.6752 24.825 12.4752 22.8083 11.1335C20.525 9.6085 16.7667 9.6085 14.4667 11.1335Z" fill="white"/>
<path id="Vector_5" opacity="0.4" d="M6.63334 8.05841C6.55 8.05008 6.45 8.05008 6.35834 8.05841C4.375 7.99175 2.8 6.36675 2.8 4.36675C2.8 2.32508 4.45 0.666748 6.5 0.666748C8.54167 0.666748 10.2 2.32508 10.2 4.36675C10.1917 6.36675 8.61667 7.99175 6.63334 8.05841Z" fill="white"/>
<path id="Vector_6" opacity="0.4" d="M2.46668 11.1335C0.450011 12.4835 0.450011 14.6835 2.46668 16.0252C4.75834 17.5585 8.51668 17.5585 10.8083 16.0252C12.825 14.6752 12.825 12.4752 10.8083 11.1335C8.52501 9.6085 4.76668 9.6085 2.46668 11.1335Z" fill="white"/>
</g>
</g>
</g>
</svg>
