<svg width="25" height="21" viewBox="0 0 25 21" fill="none" xmlns="http://www.w3.org/2000/svg">
<path d="M12.6333 11.0583C12.55 11.05 12.45 11.05 12.3583 11.0583C10.375 10.9916 8.8 9.36663 8.8 7.36663C8.8 5.32496 10.45 3.66663 12.5 3.66663C14.5417 3.66663 16.2 5.32496 16.2 7.36663C16.1917 9.36663 14.6167 10.9916 12.6333 11.0583Z" fill="white"/>
<path d="M8.46668 14.1333C6.45001 15.4833 6.45001 17.6833 8.46668 19.0249C10.7583 20.5583 14.5167 20.5583 16.8083 19.0249C18.825 17.6749 18.825 15.4749 16.8083 14.1333C14.525 12.6083 10.7667 12.6083 8.46668 14.1333Z" fill="white"/>
<path opacity="0.4" d="M18.6333 8.05829C18.55 8.04996 18.45 8.04996 18.3583 8.05829C16.375 7.99163 14.8 6.36663 14.8 4.36663C14.8 2.32496 16.45 0.666626 18.5 0.666626C20.5417 0.666626 22.2 2.32496 22.2 4.36663C22.1917 6.36663 20.6167 7.99163 18.6333 8.05829Z" fill="white"/>
<path opacity="0.4" d="M14.4667 11.1333C12.45 12.4833 12.45 14.6833 14.4667 16.0249C16.7583 17.5583 20.5167 17.5583 22.8083 16.0249C24.825 14.6749 24.825 12.4749 22.8083 11.1333C20.525 9.60825 16.7667 9.60825 14.4667 11.1333Z" fill="white"/>
<path opacity="0.4" d="M6.63334 8.05829C6.55 8.04996 6.45 8.04996 6.35834 8.05829C4.375 7.99163 2.8 6.36663 2.8 4.36663C2.8 2.32496 4.45 0.666626 6.5 0.666626C8.54167 0.666626 10.2 2.32496 10.2 4.36663C10.1917 6.36663 8.61667 7.99163 6.63334 8.05829Z" fill="white"/>
<path opacity="0.4" d="M2.46668 11.1333C0.450011 12.4833 0.450011 14.6833 2.46668 16.0249C4.75834 17.5583 8.51668 17.5583 10.8083 16.0249C12.825 14.6749 12.825 12.4749 10.8083 11.1333C8.52501 9.60825 4.76668 9.60825 2.46668 11.1333Z" fill="white"/>
</svg>
