<svg width="21" height="24" viewBox="0 0 21 24" fill="none" xmlns="http://www.w3.org/2000/svg">
<rect width="21" height="24" fill="#1E1E1E"/>
<rect width="1920" height="1080" transform="translate(-39 -363)" fill="#28246F"/>
<g clip-path="url(#clip0_0_1)">
<path d="M19.7092 10.5004C18.4383 7.28625 15.2778 4.767 16.1956 0.75L3.84005 2.51887C3.78678 2.75175 3.74266 2.98724 3.70781 3.22462L3.26222 3.26925C3.13336 3.77281 3.04463 4.28867 2.99709 4.8105L2.68111 4.84237C2.37202 6.05025 2.35528 7.161 2.52033 8.21025C1.89886 8.42137 1.27772 8.63287 0.65625 8.84362C1.19602 9.20737 1.71609 9.591 2.19483 10.002C2.13933 10.5944 2.0289 11.1785 1.86539 11.7442L3.52078 11.3179C3.77912 11.8707 4.05236 12.4142 4.34011 12.9476L2.68373 14.0501C3.17592 14.2222 3.65728 14.4146 4.10845 14.6392C4.15631 15.1329 4.15862 15.6308 4.11534 16.125L5.57287 15.2981C6.59301 17.3846 7.30669 19.5731 6.62812 22.2266C7.10948 21.942 7.59708 21.6675 8.08434 21.3911C8.04938 22.0208 7.95353 22.6441 7.79855 23.2496C11.5303 21.0442 15.4183 19.0631 19.1497 16.8577C19.2941 16.293 19.3361 15.7249 19.3177 15.1672C19.6156 14.9861 19.9182 14.8102 20.2145 14.6269C20.5518 13.155 20.1748 11.6782 19.7092 10.5004ZM3.11292 8.00887C3.05728 7.62687 3.03125 7.23999 3.03516 6.85275C3.08339 7.23037 3.15 7.60237 3.23761 7.96687L3.11292 8.00887ZM3.6248 4.74112C3.65892 5.76525 3.87712 6.72262 4.21477 7.63575L3.83086 7.76625C3.6015 6.80362 3.50995 5.80462 3.6248 4.74112ZM4.87233 12.5944C4.61838 12.1228 4.37515 11.6437 4.14291 11.1577L4.40475 11.0902C4.62646 11.5477 4.85663 11.9996 5.09512 12.4459L4.87233 12.5944ZM7.47666 20.9445C7.68141 18.7065 7.00744 16.7906 6.12609 14.9842L6.36759 14.8474C7.28306 16.6504 8.03709 18.507 8.0978 20.5942C7.89075 20.7105 7.68305 20.8256 7.47666 20.9445ZM18.6227 16.3774C16.8404 17.4244 10.1742 21.0874 8.66283 21.957C9.0487 18.4519 7.52948 15.6311 6.05456 12.8917C5.69986 12.2329 5.35073 11.5822 5.03016 10.9294L5.77927 10.7362C7.70634 13.9271 10.0816 16.953 9.10908 21.2089C12.2578 19.2559 15.5229 17.4491 18.7041 15.5381C18.6962 15.8265 18.6742 16.1089 18.6227 16.3774ZM19.6747 14.1615C17.9327 15.2359 11.4066 19.0147 9.92808 19.9095C10.1706 16.5731 8.54995 13.9766 6.97561 11.4551C5.34286 8.83987 3.79673 6.36337 4.34372 3.15525L15.4409 1.56675C15.2083 4.12912 16.4328 6.09037 17.6216 7.99462C18.2126 8.94075 18.7707 9.83475 19.1484 10.7899C19.656 12.0731 19.8292 13.1797 19.6747 14.1615Z" fill="white"/>
<path d="M14.5514 3.20215L5.21095 5.12552C5.24377 5.40115 5.28905 5.67265 5.34745 5.9389L14.6596 3.84527C14.6133 3.63331 14.5772 3.41862 14.5514 3.20215Z" fill="white"/>
<path d="M14.9927 4.95374L5.76843 7.34023C5.86523 7.59298 5.9699 7.84311 6.08278 8.08949L15.2411 5.54549C15.1523 5.35157 15.0695 5.1542 14.9927 4.95374Z" fill="white"/>
<path d="M6.75412 9.39905C6.8887 9.63882 7.02664 9.8761 7.16789 10.1108C10.1391 9.12345 13.1104 8.13645 16.0817 7.1498C15.9702 6.96387 15.861 6.7761 15.7543 6.58655L6.75412 9.39905Z" fill="white"/>
<path d="M10.5095 16.8071C10.5653 17.0748 10.6086 17.3467 10.6388 17.6234L14.7335 15.3588C14.7074 15.1125 14.6686 14.8682 14.6173 14.6272L10.5095 16.8071Z" fill="white"/>
</g>
<defs>
<clipPath id="clip0_0_1">
<rect width="21" height="24" fill="white"/>
</clipPath>
</defs>
</svg>
