<svg width="20" height="23" viewBox="0 0 20 23" fill="none" xmlns="http://www.w3.org/2000/svg">
<path d="M19.0529 9.75037C17.7821 6.53625 14.6216 4.017 15.5393 0L3.1838 1.76887C3.13053 2.00175 3.08641 2.23724 3.05156 2.47462L2.60597 2.51925C2.47711 3.02281 2.38838 3.53867 2.34084 4.0605L2.02486 4.09237C1.71577 5.30025 1.69903 6.411 1.86408 7.46025C1.24261 7.67137 0.621469 7.88287 0 8.09362C0.539766 8.45737 1.05984 8.841 1.53858 9.252C1.48308 9.84445 1.37265 10.4285 1.20914 10.9942L2.86453 10.5679C3.12287 11.1207 3.39611 11.6642 3.68386 12.1976L2.02748 13.3001C2.51967 13.4722 3.00103 13.6646 3.4522 13.8892C3.50006 14.3829 3.50237 14.8808 3.45909 15.375L4.91662 14.5481C5.93676 16.6346 6.65044 18.8231 5.97187 21.4766C6.45323 21.192 6.94083 20.9175 7.42809 20.6411C7.39313 21.2708 7.29728 21.8941 7.1423 22.4996C10.8741 20.2942 14.762 18.3131 18.4935 16.1077C18.6378 15.543 18.6798 14.9749 18.6615 14.4172C18.9594 14.2361 19.2619 14.0602 19.5582 13.8769C19.8955 12.405 19.5185 10.9282 19.0529 9.75037V9.75037ZM2.45667 7.25887C2.40103 6.87687 2.375 6.48999 2.37891 6.10275C2.42714 6.48037 2.49375 6.85237 2.58136 7.21687L2.45667 7.25887ZM2.96855 3.99112C3.00267 5.01525 3.22087 5.97262 3.55852 6.88575L3.17461 7.01625C2.94525 6.05362 2.8537 5.05462 2.96855 3.99112V3.99112ZM4.21608 11.8444C3.96213 11.3728 3.7189 10.8937 3.48666 10.4077L3.7485 10.3402C3.97021 10.7977 4.20038 11.2496 4.43887 11.6959L4.21608 11.8444V11.8444ZM6.82041 20.1945C7.02516 17.9565 6.35119 16.0406 5.46984 14.2342L5.71134 14.0974C6.62681 15.9004 7.38084 17.757 7.44155 19.8442C7.2345 19.9605 7.0268 20.0756 6.82041 20.1945ZM17.9665 15.6274C16.1841 16.6744 9.51792 20.3374 8.00658 21.207C8.39245 17.7019 6.87323 14.8811 5.39831 12.1417C5.04361 11.4829 4.69448 10.8322 4.37391 10.1794L5.12302 9.98625C7.05009 13.1771 9.42539 16.203 8.45283 20.4589C11.6015 18.5059 14.8667 16.6991 18.0479 14.7881C18.04 15.0765 18.018 15.3589 17.9665 15.6274V15.6274ZM19.0185 13.4115C17.2764 14.4859 10.7504 18.2647 9.27183 19.1595C9.51431 15.8231 7.8937 13.2266 6.31936 10.7051C4.68661 8.08987 3.14048 5.61337 3.68747 2.40525L14.7847 0.81675C14.552 3.37912 15.7766 5.34037 16.9654 7.24462C17.5563 8.19075 18.1145 9.08475 18.4921 10.0399C18.9997 11.3231 19.173 12.4297 19.0185 13.4115" fill="#5459ea"/>
<path d="M13.8951 2.45215L4.5547 4.37552C4.58752 4.65115 4.6328 4.92265 4.6912 5.1889L14.0034 3.09527C13.9571 2.88331 13.9209 2.66862 13.8951 2.45215" fill="#5459ea"/>
<path d="M14.3364 4.20386L5.11218 6.59036C5.20898 6.84311 5.31365 7.09323 5.42653 7.33961L14.5848 4.79561C14.4961 4.60169 14.4132 4.40432 14.3364 4.20386Z" fill="#5459ea"/>
<path d="M6.09787 8.64893C6.23245 8.88869 6.37039 9.12598 6.51164 9.36068C9.48283 8.37333 12.4541 7.38633 15.4255 6.39968C15.3139 6.21375 15.2048 6.02598 15.098 5.83643L6.09787 8.64893Z" fill="#5459ea"/>
<path d="M9.85327 16.0571C9.90905 16.3248 9.95237 16.5967 9.98255 16.8734L14.0772 14.6088C14.0511 14.3625 14.0124 14.1182 13.9611 13.8772L9.85327 16.0571Z" fill="#5459ea"/>
</svg>
