<svg width="20" height="20" viewBox="0 0 20 20" fill="none" xmlns="http://www.w3.org/2000/svg">
<g id="mdi:account-clock-outline" clip-path="url(#clip0_16_224)">
<path id="Vector" d="M13.3333 11.6666H14.5833V14.0166L16.6167 15.1916L15.9917 16.2749L13.3333 14.7416V11.6666ZM14.1667 9.99992C13.0616 9.99992 12.0018 10.4389 11.2204 11.2203C10.439 12.0017 9.99999 13.0615 9.99999 14.1666C9.99999 15.2717 10.439 16.3315 11.2204 17.1129C12.0018 17.8943 13.0616 18.3333 14.1667 18.3333C15.2717 18.3333 16.3315 17.8943 17.1129 17.1129C17.8943 16.3315 18.3333 15.2717 18.3333 14.1666C18.3333 13.0615 17.8943 12.0017 17.1129 11.2203C16.3315 10.4389 15.2717 9.99992 14.1667 9.99992ZM14.1667 8.33325C15.7138 8.33325 17.1975 8.94783 18.2915 10.0418C19.3854 11.1358 20 12.6195 20 14.1666C20 15.7137 19.3854 17.1974 18.2915 18.2914C17.1975 19.3853 15.7138 19.9999 14.1667 19.9999C11.8417 19.9999 9.83333 18.6333 8.89166 16.6666H0.833328V14.1666C0.833328 11.9499 5.27499 10.8333 7.49999 10.8333C7.99999 10.8333 8.61666 10.8916 9.26666 10.9999C9.79522 10.1811 10.5207 9.50793 11.3768 9.04205C12.2328 8.57618 13.1921 8.33247 14.1667 8.33325ZM8.33333 14.1666C8.33333 13.5833 8.41666 13.0166 8.57499 12.4999C8.22499 12.4416 7.85833 12.4166 7.49999 12.4166C5.02499 12.4166 2.41666 13.6333 2.41666 14.1666V15.0833H8.40833C8.3582 14.7803 8.33311 14.4737 8.33333 14.1666ZM7.49999 3.33325C8.38405 3.33325 9.2319 3.68444 9.85702 4.30956C10.4821 4.93468 10.8333 5.78253 10.8333 6.66659C10.8333 7.55064 10.4821 8.39849 9.85702 9.02361C9.2319 9.64873 8.38405 9.99992 7.49999 9.99992C6.61594 9.99992 5.76809 9.64873 5.14297 9.02361C4.51785 8.39849 4.16666 7.55064 4.16666 6.66659C4.16666 5.78253 4.51785 4.93468 5.14297 4.30956C5.76809 3.68444 6.61594 3.33325 7.49999 3.33325ZM7.49999 4.91659C7.03587 4.91659 6.59075 5.10096 6.26256 5.42915C5.93437 5.75734 5.74999 6.20246 5.74999 6.66659C5.74999 7.13071 5.93437 7.57583 6.26256 7.90402C6.59075 8.23221 7.03587 8.41659 7.49999 8.41659C7.96412 8.41659 8.40924 8.23221 8.73743 7.90402C9.06562 7.57583 9.25 7.13071 9.25 6.66659C9.25 6.20246 9.06562 5.75734 8.73743 5.42915C8.40924 5.10096 7.96412 4.91659 7.49999 4.91659Z" fill="white"/>
</g>
<defs>
<clipPath id="clip0_16_224">
<rect width="20" height="20" fill="white"/>
</clipPath>
</defs>
</svg>
